<svg width="800" height="800" viewBox="0 0 800 800" fill="none" xmlns="http://www.w3.org/2000/svg">
<path d="M428.447 350.371C435.142 343.676 438.903 334.596 438.903 325.128C438.903 315.66 435.142 306.58 428.447 299.885C421.753 293.19 412.672 289.429 403.205 289.429C393.737 289.429 384.657 293.19 377.962 299.885L96.3628 581.549C16.3844 462.611 26.4944 303.298 177.694 152.035C351.495 -21.6385 736.899 0.964118 736.899 0.964118C745.232 1.65035 753.053 5.26801 758.971 11.1745C764.889 17.0811 768.522 24.8941 769.225 33.226C769.225 33.226 791.763 418.629 617.962 592.431C471.399 739.059 317.109 753.032 199.459 680.845L90.7605 789.544C87.4456 792.859 83.5102 795.489 79.179 797.283C74.8478 799.077 70.2057 800 65.5177 800C60.8297 800 56.1875 799.077 51.8564 797.283C47.5252 795.489 43.5898 792.859 40.2749 789.544C36.9599 786.229 34.3304 782.294 32.5364 777.963C30.7423 773.631 29.819 768.989 29.819 764.301C29.819 759.613 30.7423 754.971 32.5364 750.64C34.3304 746.309 36.9599 742.373 40.2749 739.058L428.447 350.371Z" fill="#33998B"/>
</svg>
